<svg width="176" height="52" viewBox="0 0 176 52" fill="none" xmlns="http://www.w3.org/2000/svg">
<path d="M8 23L10 22L15 16L16 15L17 22H15L14 19L13 23H18L22 25L24 23L27 27L29 21L31 23L32 21L34 20L38 17V16H41L42 18L40 22L45 19V18H47L49 20L51 17V16L54 13L56 11H58L61 3L65 0L66 2L64 4L65 6H66L68 13V18L70 22L72 27L67 24L65 16H64V21L61 27L60 35H62L63 34L65 37L67 44V49H65L64 42L62 44L59 43L57 41L54 42V47L52 48L48 50H44L42 49H40L41 50L39 51H37L34 52L29 50L27 45L26 46L24 44V43L18 42L17 46L14 44L12 41H8V46H6L4 51V50L0 41L4 39V35L3 30L5 28L4 26L7 23H8ZM65 34L68 40L70 39L68 37L65 33V34ZM24 22V20L27 18L30 16H27L24 18L23 19V22H24Z" fill="white"/>
<path d="M90 41H95V36H97C100.967 36 104 33.7585 104 30C104 26.2841 100.865 24 97 24H90V41ZM95 32V27H96C97.6565 27 99 28.5 99 30C99 31.4915 97.6565 32 96 32H95Z" fill="white"/>
<path d="M112 41C116.247 41 118 38.0227 118 34C118 29.9773 116.247 28 112 28C107.753 28 105 29.9773 105 34C105 38.0227 107.753 41 112 41ZM112 38C110.743 38 110 36.054 110 34C110 31.946 110.743 31 112 31C113.189 31 114 31.946 114 34C114 36.054 113.189 38 112 38Z" fill="white"/>
<path d="M127 41C130.865 41 132.949 39.4688 133 36H128C127.898 37.3722 128.028 38 127 38C125.768 38 125 36.1477 125 34C125 31.8523 125.768 31 127 31C128.036 31 127.873 31.6278 128 33H133C132.975 29.5909 130.84 28 127 28C122.753 28 120 29.9773 120 34C120 38.0227 122.753 41 127 41Z" fill="white"/>
<path d="M141 41C144.865 41 146.949 39.4688 147 36H143C142.898 37.3722 142.028 38 141 38C139.768 38 139 36.1477 139 34C139 31.8523 139.768 31 141 31C142.036 31 142.873 31.6278 143 33H147C146.975 29.5909 144.84 28 141 28C136.753 28 134 29.9773 134 34C134 38.0227 136.753 41 141 41Z" fill="white"/>
<path d="M154 35V28H149V41H154L157 34V41H162V28H157L154 35Z" fill="white"/>
<path d="M172 41H176V28H170C166.237 28 163.975 29.3409 164 32C163.983 33.4915 164.437 35.267 166 36L164 41H168L170 37H172V41ZM172 34H170C168.751 34 167.975 33.5795 168 33C167.975 32.4545 168.819 31 170 31H172V34Z" fill="white"/>
</svg>
